ply
format ascii 1.0
comment This is a sample PLY file with georeferenced information
element vertex 8
property float x
property float y
property float z
property float latitude
property float longitude
property float altitude
property uchar red
property uchar green
property uchar blue
end_header
0.0 0.0 0.0 37.7749 -122.4194 30.0 255 0 0
1.0 0.0 0.0 37.7749 -122.4195 30.0 0 255 0
2.0 0.0 0.0 37.7749 -122.4196 30.0 0 0 255
0.0 1.0 -1.0 37.7750 -122.4194 30.0 255 255 0
1.0 1.0 -2.0 37.7750 -122.4195 30.0 0 255 255
2.0 1.0 -1.0 37.7750 -122.4196 30.0 255 0 255
0.0 2.0 0.0 37.7751 -122.4194 30.0 128 128 128
2.0 2.0 0.0 37.7751 -122.4195 30.0 64 64 64